<svg width="160" height="40" fill="none" xmlns="http://www.w3.org/2000/svg"><path fill-rule="evenodd" clip-rule="evenodd" d="M68.3 29.5V13.2h4.4v-5h-4.4V0h-6.2v8.2h-3.7v5H62v16.3h6.2zm-62-11.3v11.3H0V8.2h6.2v3c.5-1 1.2-1.9 2.2-2.5 1-.6 2.1-1 3.3-1 3.3 0 5.5 1.3 6.7 3.8C19.9 9 22 7.7 24.6 7.7s4.6.9 6 2.5c1.3 1.7 2 4.1 2 7.2v12.1h-6.1V18.1c0-1.3-.3-2.3-1-3a3.2 3.2 0 00-2.5-1.2c-1 0-2 .4-2.6 1-.6.8-1 1.9-1 3.3v11.3h-6.1V18c-.1-1.3-.4-2.3-1-3-.7-.7-1.5-1-2.6-1-1 0-1.8.3-2.5 1s-1 1.7-1 3.2zm51.2-10L44.6 40h-6.5l5-12.7-8-19.1h6.5l4.6 12 4.7-12h6.6zm37.8 17.4c-2 3-5.1 4.4-9.5 4.4-3.1 0-5.7-1-7.8-3.1a11 11 0 01-3.1-8.1 10.5 10.5 0 0110.8-11c3 0 5.6 1 7.7 3 2 2.1 3 4.8 3 8.2v2H81c0 1 .7 2 1.7 2.6 1 .6 2.1 1 3.4 1 2 0 3.5-.8 4.6-2.1l4.5 3.1zM90.2 17h-9c.2-1.2.8-2.1 1.7-2.8 1-.6 1.9-1 3-.9 1 0 2 .4 2.8 1 .8.6 1.3 1.5 1.5 2.7zM113 29.2a8 8 0 01-3.4.7c-2.9 0-5.3-1-7.4-3-2.2-2.1-3.2-4.8-3.2-8 0-3.3 1-6 3.3-8 2.1-2.1 4.6-3.2 7.3-3.2 1.1 0 2.2.3 3.4.8a6 6 0 012.7 2V8.3h6.1v21.3h-6.1v-2.4c-.6 1-1.5 1.6-2.7 2.1zm-2.4-5.3c-1.4 0-2.6-.5-3.6-1.4-1-1-1.6-2.2-1.6-3.6 0-1.5.5-2.7 1.6-3.7s2.3-1.4 3.7-1.4c1.4 0 2.5.4 3.5 1.4 1 1 1.5 2.2 1.5 3.7 0 1.4-.5 2.7-1.5 3.6a5 5 0 01-3.6 1.4zm22.8-5.7v11.3h-6.2V8.2h6.2v3c.5-1 1.3-1.9 2.2-2.5 1-.6 2.1-1 3.3-1 3.3 0 5.5 1.3 6.7 3.8 1.5-2.5 3.6-3.8 6.2-3.8s4.6.9 6 2.5c1.4 1.7 2 4.1 2 7.2v12.1h-6.1V18.1c0-1.3-.3-2.3-1-3a3.2 3.2 0 00-2.5-1.2c-1 0-2 .4-2.6 1-.6.8-1 1.9-1 3.3v11.3h-6.1V18c0-1.3-.4-2.3-1-3-.7-.7-1.5-1-2.5-1s-2 .3-2.6 1c-.6.7-1 1.7-1 3.2z" fill="#fff"/></svg>